<svg width="43" height="27" viewBox="0 0 43 27" fill="none" xmlns="http://www.w3.org/2000/svg">
<path d="M43.0005 21.1704C40.2362 23.9318 35.9362 27 31.0219 27C26.4148 27 23.6505 25.4659 21.1933 24.2386C18.7362 23.3181 16.279 21.4772 12.2862 21.4772C8.60047 21.4772 5.2219 23.9318 3.37905 25.7727L0.307617 20.8636C3.0719 18.1022 7.3719 15.0341 12.2862 15.0341C16.8933 15.0341 19.6576 16.5681 22.1148 17.7954C24.5719 18.7159 27.029 20.25 31.0219 20.25C34.7076 20.25 38.0862 17.7954 39.929 15.9545L43.0005 21.1704Z" fill="white"/>
<path d="M42.6929 6.13636C39.9286 8.89773 35.6286 11.9659 30.7143 11.9659C26.1071 11.9659 23.3429 10.4318 20.8857 9.20455C18.4286 8.28409 15.9714 6.44318 11.9786 6.44318C8.29286 6.44318 4.91429 8.89773 3.07143 10.7386L0 5.82955C2.76429 3.06818 7.06429 0 11.9786 0C16.5857 0 19.35 1.53409 21.8071 2.76136C24.2643 3.68182 26.7214 5.21591 30.7143 5.21591C34.4 5.21591 37.7786 2.76136 39.6214 0.920452L42.6929 6.13636Z" fill="#1DB954"/>
</svg>
