<svg width="241" height="27" viewBox="0 0 241 27" fill="none" xmlns="http://www.w3.org/2000/svg">
<path d="M70.9241 21.264C69.7068 21.264 68.5261 21.1027 67.3821 20.78C66.2528 20.4427 65.3434 20.01 64.6541 19.482L65.8641 16.798C66.5241 17.282 67.3088 17.6707 68.2181 17.964C69.1274 18.2573 70.0368 18.404 70.9461 18.404C71.9581 18.404 72.7061 18.2573 73.1901 17.964C73.6741 17.656 73.9161 17.2527 73.9161 16.754C73.9161 16.3873 73.7694 16.0867 73.4761 15.852C73.1974 15.6027 72.8308 15.4047 72.3761 15.258C71.9361 15.1113 71.3348 14.95 70.5721 14.774C69.3988 14.4953 68.4381 14.2167 67.6901 13.938C66.9421 13.6593 66.2968 13.212 65.7541 12.596C65.2261 11.98 64.9621 11.1587 64.9621 10.132C64.9621 9.23733 65.2041 8.43067 65.6881 7.712C66.1721 6.97867 66.8981 6.39933 67.8661 5.974C68.8488 5.54867 70.0441 5.336 71.4521 5.336C72.4348 5.336 73.3954 5.45333 74.3341 5.688C75.2728 5.92267 76.0941 6.26 76.7981 6.7L75.6981 9.406C74.2754 8.59933 72.8528 8.196 71.4301 8.196C70.4328 8.196 69.6921 8.35733 69.2081 8.68C68.7388 9.00267 68.5041 9.428 68.5041 9.956C68.5041 10.484 68.7754 10.88 69.3181 11.144C69.8754 11.3933 70.7188 11.6427 71.8481 11.892C73.0214 12.1707 73.9821 12.4493 74.7301 12.728C75.4781 13.0067 76.1161 13.4467 76.6441 14.048C77.1868 14.6493 77.4581 15.4633 77.4581 16.49C77.4581 17.37 77.2088 18.1767 76.7101 18.91C76.2261 19.6287 75.4928 20.2007 74.5101 20.626C73.5274 21.0513 72.3321 21.264 70.9241 21.264ZM86.6474 8.988C87.7474 8.988 88.7447 9.24467 89.6394 9.758C90.5487 10.2567 91.26 10.968 91.7734 11.892C92.2867 12.8013 92.5434 13.8647 92.5434 15.082C92.5434 16.2993 92.2867 17.37 91.7734 18.294C91.26 19.2033 90.5487 19.9147 89.6394 20.428C88.7447 20.9267 87.7474 21.176 86.6474 21.176C85.1367 21.176 83.9487 20.6993 83.0834 19.746V25.268H79.6514V9.164H82.9294V10.528C83.78 9.50133 85.0194 8.988 86.6474 8.988ZM86.0534 18.36C86.9334 18.36 87.652 18.0667 88.2094 17.48C88.7814 16.8787 89.0674 16.0793 89.0674 15.082C89.0674 14.0847 88.7814 13.2927 88.2094 12.706C87.652 12.1047 86.9334 11.804 86.0534 11.804C85.1734 11.804 84.4474 12.1047 83.8754 12.706C83.318 13.2927 83.0394 14.0847 83.0394 15.082C83.0394 16.0793 83.318 16.8787 83.8754 17.48C84.4474 18.0667 85.1734 18.36 86.0534 18.36ZM100.473 21.176C99.2262 21.176 98.1042 20.9193 97.1068 20.406C96.1242 19.878 95.3542 19.152 94.7968 18.228C94.2395 17.304 93.9608 16.2553 93.9608 15.082C93.9608 13.9087 94.2395 12.86 94.7968 11.936C95.3542 11.012 96.1242 10.2933 97.1068 9.78C98.1042 9.252 99.2262 8.988 100.473 8.988C101.72 8.988 102.834 9.252 103.817 9.78C104.8 10.2933 105.57 11.012 106.127 11.936C106.684 12.86 106.963 13.9087 106.963 15.082C106.963 16.2553 106.684 17.304 106.127 18.228C105.57 19.152 104.8 19.878 103.817 20.406C102.834 20.9193 101.72 21.176 100.473 21.176ZM100.473 18.36C101.353 18.36 102.072 18.0667 102.629 17.48C103.201 16.8787 103.487 16.0793 103.487 15.082C103.487 14.0847 103.201 13.2927 102.629 12.706C102.072 12.1047 101.353 11.804 100.473 11.804C99.5928 11.804 98.8668 12.1047 98.2948 12.706C97.7228 13.2927 97.4368 14.0847 97.4368 15.082C97.4368 16.0793 97.7228 16.8787 98.2948 17.48C98.8668 18.0667 99.5928 18.36 100.473 18.36ZM116.891 20.428C116.554 20.6773 116.136 20.868 115.637 21C115.153 21.1173 114.64 21.176 114.097 21.176C112.689 21.176 111.596 20.8167 110.819 20.098C110.056 19.3793 109.675 18.3233 109.675 16.93V12.068H107.849V9.428H109.675V6.546H113.107V9.428H116.055V12.068H113.107V16.886C113.107 17.3847 113.232 17.7733 113.481 18.052C113.745 18.316 114.112 18.448 114.581 18.448C115.124 18.448 115.586 18.3013 115.967 18.008L116.891 20.428ZM118.817 9.164H122.249V21H118.817V9.164ZM120.533 7.514C119.903 7.514 119.389 7.33067 118.993 6.964C118.597 6.59733 118.399 6.14267 118.399 5.6C118.399 5.05733 118.597 4.60267 118.993 4.236C119.389 3.86933 119.903 3.686 120.533 3.686C121.164 3.686 121.677 3.862 122.073 4.214C122.469 4.566 122.667 5.006 122.667 5.534C122.667 6.106 122.469 6.58267 122.073 6.964C121.677 7.33067 121.164 7.514 120.533 7.514ZM129.197 9.428H132.233V12.068H129.285V21H125.853V12.068H124.027V9.428H125.853V8.9C125.853 7.55067 126.249 6.48 127.041 5.688C127.847 4.896 128.977 4.5 130.429 4.5C130.942 4.5 131.426 4.55867 131.881 4.676C132.35 4.77867 132.739 4.93267 133.047 5.138L132.145 7.624C131.749 7.34533 131.287 7.206 130.759 7.206C129.717 7.206 129.197 7.778 129.197 8.922V9.428ZM145.905 9.164L140.559 21.726C140.017 23.09 139.342 24.0507 138.535 24.608C137.743 25.1653 136.783 25.444 135.653 25.444C135.037 25.444 134.429 25.3487 133.827 25.158C133.226 24.9673 132.735 24.7033 132.353 24.366L133.607 21.924C133.871 22.1587 134.172 22.342 134.509 22.474C134.861 22.606 135.206 22.672 135.543 22.672C136.013 22.672 136.394 22.5547 136.687 22.32C136.981 22.1 137.245 21.726 137.479 21.198L137.523 21.088L132.397 9.164H135.939L139.261 17.194L142.605 9.164H145.905Z" fill="#1DB954"/>
<path d="M157.518 21.176C156.535 21.176 155.575 21.0587 154.636 20.824C153.697 20.5747 152.949 20.2667 152.392 19.9L153.536 17.436C154.064 17.7733 154.702 18.052 155.45 18.272C156.198 18.4773 156.931 18.58 157.65 18.58C159.102 18.58 159.828 18.2207 159.828 17.502C159.828 17.1647 159.63 16.9227 159.234 16.776C158.838 16.6293 158.229 16.5047 157.408 16.402C156.44 16.2553 155.641 16.0867 155.01 15.896C154.379 15.7053 153.829 15.368 153.36 14.884C152.905 14.4 152.678 13.7107 152.678 12.816C152.678 12.068 152.891 11.408 153.316 10.836C153.756 10.2493 154.387 9.79467 155.208 9.472C156.044 9.14933 157.027 8.988 158.156 8.988C158.992 8.988 159.821 9.08333 160.642 9.274C161.478 9.45 162.167 9.69933 162.71 10.022L161.566 12.464C160.525 11.8773 159.388 11.584 158.156 11.584C157.423 11.584 156.873 11.6867 156.506 11.892C156.139 12.0973 155.956 12.3613 155.956 12.684C155.956 13.0507 156.154 13.3073 156.55 13.454C156.946 13.6007 157.577 13.74 158.442 13.872C159.41 14.0333 160.202 14.2093 160.818 14.4C161.434 14.576 161.969 14.906 162.424 15.39C162.879 15.874 163.106 16.5487 163.106 17.414C163.106 18.1473 162.886 18.8 162.446 19.372C162.006 19.944 161.361 20.3913 160.51 20.714C159.674 21.022 158.677 21.176 157.518 21.176ZM172.418 8.988C173.884 8.988 175.065 9.428 175.96 10.308C176.869 11.188 177.324 12.4933 177.324 14.224V21H173.892V14.752C173.892 13.8133 173.686 13.1167 173.276 12.662C172.865 12.1927 172.271 11.958 171.494 11.958C170.628 11.958 169.939 12.2293 169.426 12.772C168.912 13.3 168.656 14.092 168.656 15.148V21H165.224V4.676H168.656V10.396C169.11 9.94133 169.66 9.59667 170.306 9.362C170.951 9.11267 171.655 8.988 172.418 8.988ZM192.359 9.164V21H189.103V19.592C188.648 20.1053 188.105 20.5013 187.475 20.78C186.844 21.044 186.162 21.176 185.429 21.176C183.874 21.176 182.642 20.7287 181.733 19.834C180.823 18.9393 180.369 17.612 180.369 15.852V9.164H183.801V15.346C183.801 17.2527 184.6 18.206 186.199 18.206C187.02 18.206 187.68 17.942 188.179 17.414C188.677 16.8713 188.927 16.072 188.927 15.016V9.164H192.359ZM199.3 9.428H202.336V12.068H199.388V21H195.956V12.068H194.13V9.428H195.956V8.9C195.956 7.55067 196.352 6.48 197.144 5.688C197.951 4.896 199.08 4.5 200.532 4.5C201.045 4.5 201.529 4.55867 201.984 4.676C202.453 4.77867 202.842 4.93267 203.15 5.138L202.248 7.624C201.852 7.34533 201.39 7.206 200.862 7.206C199.821 7.206 199.3 7.778 199.3 8.922V9.428ZM207.808 9.428H210.844V12.068H207.896V21H204.464V12.068H202.638V9.428H204.464V8.9C204.464 7.55067 204.86 6.48 205.652 5.688C206.459 4.896 207.588 4.5 209.04 4.5C209.553 4.5 210.037 4.55867 210.492 4.676C210.961 4.77867 211.35 4.93267 211.658 5.138L210.756 7.624C210.36 7.34533 209.898 7.206 209.37 7.206C208.329 7.206 207.808 7.778 207.808 8.922V9.428ZM212.56 4.676H215.992V21H212.56V4.676ZM230.786 15.126C230.786 15.17 230.764 15.478 230.72 16.05H221.766C221.928 16.7833 222.309 17.3627 222.91 17.788C223.512 18.2133 224.26 18.426 225.154 18.426C225.77 18.426 226.313 18.338 226.782 18.162C227.266 17.9713 227.714 17.678 228.124 17.282L229.95 19.262C228.836 20.538 227.208 21.176 225.066 21.176C223.732 21.176 222.551 20.9193 221.524 20.406C220.498 19.878 219.706 19.152 219.148 18.228C218.591 17.304 218.312 16.2553 218.312 15.082C218.312 13.9233 218.584 12.882 219.126 11.958C219.684 11.0193 220.439 10.2933 221.392 9.78C222.36 9.252 223.438 8.988 224.626 8.988C225.785 8.988 226.834 9.23733 227.772 9.736C228.711 10.2347 229.444 10.9533 229.972 11.892C230.515 12.816 230.786 13.894 230.786 15.126ZM224.648 11.584C223.871 11.584 223.218 11.804 222.69 12.244C222.162 12.684 221.84 13.2853 221.722 14.048H227.552C227.435 13.3 227.112 12.706 226.584 12.266C226.056 11.8113 225.411 11.584 224.648 11.584ZM236.349 10.726C236.76 10.154 237.31 9.72133 237.999 9.428C238.703 9.13467 239.51 8.988 240.419 8.988V12.156C240.038 12.1267 239.781 12.112 239.649 12.112C238.667 12.112 237.897 12.3907 237.339 12.948C236.782 13.4907 236.503 14.312 236.503 15.412V21H233.071V9.164H236.349V10.726Z" fill="white"/>
<path d="M43.0005 21.1704C40.2362 23.9318 35.9362 27 31.0219 27C26.4148 27 23.6505 25.4659 21.1933 24.2386C18.7362 23.3181 16.279 21.4772 12.2862 21.4772C8.60047 21.4772 5.2219 23.9318 3.37905 25.7727L0.307617 20.8636C3.0719 18.1022 7.3719 15.0341 12.2862 15.0341C16.8933 15.0341 19.6576 16.5681 22.1148 17.7954C24.5719 18.7159 27.029 20.25 31.0219 20.25C34.7076 20.25 38.0862 17.7954 39.929 15.9545L43.0005 21.1704Z" fill="white"/>
<path d="M42.6929 6.13636C39.9286 8.89773 35.6286 11.9659 30.7143 11.9659C26.1071 11.9659 23.3429 10.4318 20.8857 9.20455C18.4286 8.28409 15.9714 6.44318 11.9786 6.44318C8.29286 6.44318 4.91429 8.89773 3.07143 10.7386L0 5.82955C2.76429 3.06818 7.06429 0 11.9786 0C16.5857 0 19.35 1.53409 21.8071 2.76136C24.2643 3.68182 26.7214 5.21591 30.7143 5.21591C34.4 5.21591 37.7786 2.76136 39.6214 0.920452L42.6929 6.13636Z" fill="#1DB954"/>
</svg>
